<svg width="25" height="24" viewBox="0 0 25 24" fill="none" xmlns="http://www.w3.org/2000/svg">
<path fill-rule="evenodd" clip-rule="evenodd" d="M16.2399 14.6792L20.2806 18.7197C20.5735 19.0126 20.5735 19.4875 20.2806 19.7804C19.9877 20.0733 19.5128 20.0733 19.2199 19.7804L15.1792 15.7399C14.1632 16.5297 12.8865 17 11.5 17C8.18629 17 5.5 14.3137 5.5 11C5.5 7.68629 8.18629 5 11.5 5C14.8137 5 17.5 7.68629 17.5 11C17.5 12.3865 17.0297 13.6632 16.2399 14.6792ZM11.5 15.5C13.9853 15.5 16 13.4853 16 11C16 8.51472 13.9853 6.5 11.5 6.5C9.01472 6.5 7 8.51472 7 11C7 13.4853 9.01472 15.5 11.5 15.5Z" fill="#333333"/>
</svg>
